<svg version="1.1" viewBox="0 0 903.57 931.91" xmlns="http://www.w3.org/2000/svg">
  <style type="text/css">.st0{fill:#ED1C2C;}
	.st1{fill:#FFFFFF;}
	.st2{fill:#213469;}
	.st3{fill:#BB9A7B;}
	.st4{fill:#F8991D;}
	.st5{fill:#5B432F;}
	.st6{fill:#1A1A1C;}
	.st7{fill:#5E0710;}</style>
  <g transform="translate(-43.401 -27.678)">
    <g id="a" transform="matrix(7.8825 0 0 7.8825 -9832.2 -6206.6)">
      <g transform="translate(120.76 177.42)">
        <path class="st3" d="m1205.5 728.7h-32.5c-8.9 0-16-7.2-16-16v-14.3h64.6v14.3c-0.1 8.8-7.3 16-16.1 16z" style="fill:#bb9a7b"/>
        <path class="st1" d="m1205.5 730.4h-32.5c-9.8 0-17.7-7.9-17.7-17.7v-15.9h67.9v15.9c0 9.7-7.9 17.7-17.7 17.7zm-46.9-30.3v12.6c0 7.9 6.4 14.4 14.4 14.4h32.5c7.9 0 14.4-6.4 14.4-14.4v-12.6z" style="fill:#fff"/>
        <path class="st3" d="m1212.8 730.1h-42.4c-6.2 0-11.2-5-11.2-11.2v-15.9h64.8v15.9c0 6.2-5 11.2-11.2 11.2z" style="fill:#bb9a7b"/>
        <path class="st1" d="m1212.8 731.7h-42.4c-7.1 0-12.9-5.8-12.9-12.9v-17.5h68.2v17.5c-0.1 7.2-5.8 12.9-12.9 12.9zm-52-27v14.2c0 5.3 4.3 9.5 9.5 9.5h42.4c5.3 0 9.5-4.3 9.5-9.5v-14.2z" style="fill:#fff"/>
        <path class="st1" d="m1148.1 627.5c-0.7 0-1.4-0.5-1.6-1.2-0.3-0.9 0.2-1.8 1.1-2.1 9.5-2.9 19.2-4.9 29-6 0.9-0.1 1.7 0.6 1.9 1.5 0.1 0.9-0.6 1.7-1.5 1.9-9.6 1.1-19.2 3.1-28.4 5.9-0.2-0.1-0.3 0-0.5 0z" style="fill:#fff"/>
        <path class="st1" d="m1152.1 639.4c-0.7 0-1.3-0.4-1.6-1.1-0.3-0.9 0.1-1.8 1-2.2 8.2-3.1 16.7-5.1 25.4-6 0.9-0.1 1.7 0.6 1.8 1.5s-0.6 1.7-1.5 1.8c-8.4 0.8-16.7 2.8-24.6 5.8-0.1 0.2-0.3 0.2-0.5 0.2z" style="fill:#fff"/>
        <path class="st1" d="m1155 650.2c-0.8 0-1.5-0.6-1.6-1.4-0.2-0.9 0.4-1.8 1.3-2l22.3-4.3c0.9-0.2 1.8 0.4 2 1.3s-0.4 1.8-1.3 2l-22.3 4.3c-0.2 0.1-0.3 0.1-0.4 0.1z" style="fill:#fff"/>
        <path class="st1" d="m1158.6 660.3c-0.7 0-1.4-0.5-1.6-1.2-0.3-0.9 0.2-1.8 1.1-2.1 6.1-1.8 12.4-3.2 18.7-4.1 0.9-0.1 1.8 0.5 1.9 1.4s-0.5 1.8-1.4 1.9c-6.1 0.9-12.3 2.2-18.2 4-0.2 0.1-0.3 0.1-0.5 0.1z" style="fill:#fff"/>
        <path class="st1" d="m1170.1 666.8c-0.8 0-1.5-0.6-1.6-1.4l-7.6-43c-0.2-0.9 0.4-1.8 1.4-1.9 0.9-0.2 1.8 0.4 1.9 1.4l7.6 43c0.2 0.9-0.4 1.8-1.4 1.9h-0.3z" style="fill:#fff"/>
        <path class="st3" d="m1240.6 625.8c-19.8-8.3-39.6-11.9-59.2-10.7-2.2 0.1-4 2-4 4.3v40.6c0 2.1-1.4 3.8-3.5 4.3l-3.8 0.8c-5 1.1-10.1-1.7-11.8-6.6-4.2-11.6-6.8-23.9-8.1-31.6-0.5-2.8-3.5-4.5-6.2-3.5-2.5 1-5 2-7.5 3.1-1.7 0.8-2.7 2.4-2.7 4.3 0.7 27.1 4.6 45.5 11.4 66.7 2.8 8.8 11 14.8 20.2 14.8h48.3c9.1 0 17.1-5.8 20.1-14.4 7.9-23 11.9-41 11.5-65-0.1-3.1-1.9-5.9-4.7-7.1z" style="fill:#bb9a7b"/>
        <path class="st1" d="m1213.7 713.9h-48.3c-10 0-18.8-6.4-21.8-15.9-6.6-20.4-10.8-38.8-11.5-67.1-0.1-2.5 1.4-4.8 3.7-5.8 2.5-1.1 5.1-2.2 7.6-3.2 0.7-0.3 1.5-0.4 2.2-0.4 3.1 0 5.6 2.2 6.2 5.2 1.4 8.1 3.9 20 8 31.4 1.2 3.4 4.5 5.7 8.1 5.7 0.6 0 1.2-0.1 1.8-0.2l3.8-0.8c1.2-0.3 2.1-1.4 2.1-2.6v-40.6c0-3.1 2.4-5.7 5.5-5.9 19.7-1.2 39.8 2.4 59.9 10.8 3.4 1.4 5.7 4.8 5.7 8.5 0.4 25.4-4.1 44-11.6 65.6-2.9 9.1-11.6 15.3-21.4 15.3zm-68-89.1c-0.4 0-0.7 0.1-1.1 0.2-2.5 1-5 2-7.4 3.1-1.1 0.5-1.7 1.5-1.7 2.7 0.7 28 4.9 46.1 11.4 66.2 2.6 8.1 10.1 13.6 18.6 13.6h48.3c8.3 0 15.8-5.3 18.5-13.2 7.3-21.3 11.8-39.5 11.4-64.5 0-2.4-1.5-4.6-3.7-5.5-17.1-7.2-34.3-10.8-51.1-10.8-2.4 0-4.9 0.1-7.4 0.2-1.4 0.1-2.4 1.2-2.4 2.6v40.6c0 2.8-2 5.3-4.8 5.9l-3.8 0.8c-0.8 0.2-1.7 0.3-2.5 0.3-5 0-9.5-3.2-11.2-7.9-4.2-11.5-6.7-23.7-8.2-31.9-0.3-1.4-1.5-2.4-2.9-2.4z" style="fill:#fff"/>
        <path class="st1" d="m1213.7 724.3h-43.9c-1.5 0-2.8-1.2-2.8-2.8v-0.1c0-1.5 1.2-2.8 2.8-2.8h43.9c1.5 0 2.8 1.2 2.8 2.8v0.1c0 1.5-1.2 2.8-2.8 2.8z" style="fill:#fff"/>
        <line class="st3" x1="1193.3" x2="1193.3" y1="615.8" y2="662.4" style="fill:#bb9a7b"/>
        <path class="st1" d="m1193.3 664c-0.9 0-1.7-0.7-1.7-1.7v-46.6c0-0.9 0.7-1.7 1.7-1.7 0.9 0 1.7 0.7 1.7 1.7v46.6c0 1-0.7 1.7-1.7 1.7z" style="fill:#fff"/>
        <path class="st1" d="m1210.4 666.8c-0.9 0-1.7-0.7-1.7-1.7v-48.3c0-0.9 0.7-1.7 1.7-1.7s1.7 0.7 1.7 1.7v48.3c0 0.9-0.7 1.7-1.7 1.7z" style="fill:#fff"/>
        <path class="st1" d="m1226.2 669.6h-0.2c-0.9-0.1-1.6-1-1.4-1.9 1.4-10.5 1.4-19.9 1.5-29.8 0-5.6 0-11.5 0.3-17.5 0-0.9 0.8-1.6 1.8-1.6 0.9 0 1.6 0.8 1.6 1.8-0.3 5.9-0.3 11.7-0.3 17.4 0 9.6-0.1 19.6-1.5 30.2-0.2 0.8-0.9 1.4-1.8 1.4z" style="fill:#fff"/>
        <path class="st1" d="m1153.1 700.5c-0.7 0-1.3-0.4-1.6-1.1-8.7-24.2-13.5-48-14.7-72.6 0-0.9 0.7-1.7 1.6-1.7s1.7 0.7 1.7 1.6c1.2 24.3 5.9 47.8 14.5 71.7 0.3 0.9-0.1 1.8-1 2.1h-0.5z" style="fill:#fff"/>
        <path class="st1" d="m1171.7 699.7h-0.3c-0.9-0.2-1.5-1.1-1.3-2 0.8-3.9 1.6-8 3.2-11.8 1.4-3.1 3.9-7.3 8.4-9.7 3.7-1.9 7.9-2.2 11.5-2.3 15.3-0.5 30.4 1.5 45.1 5.7 0.9 0.3 1.4 1.2 1.1 2.1s-1.2 1.4-2.1 1.1c-14.3-4.1-29.2-6-44.1-5.6-3.3 0.1-7.1 0.3-10.1 1.9-3.6 1.9-5.8 5.4-6.9 8.1-1.5 3.5-2.3 7.4-3 11.1 0 0.8-0.7 1.4-1.5 1.4z" style="fill:#fff"/>
        <path class="st1" d="m1206 706.6c-2.9 0-5.9-0.1-9.1-0.2-4.6-0.1-9.3-0.3-13.7-0.1-0.9 0-1.7-0.7-1.7-1.6s0.7-1.7 1.6-1.7c4.5-0.2 9.3 0 14 0.1 10 0.3 20.4 0.6 24-2.7 5.4-5.1 8.9-21 8.9-21.2 0.2-0.9 1.1-1.5 2-1.3s1.5 1.1 1.3 2c-0.1 0.7-3.7 17.1-9.9 22.9-3.5 3.1-9.8 3.8-17.4 3.8z" style="fill:#fff"/>
      </g>
    </g>
    <g id="b" transform="matrix(5.6266 0 0 5.6266 -4435.8 -3457.1)">
      <circle class="st1" cx="859" cy="704" r="30" style="fill:#fff"/>
      <path class="st2" d="m859 735.7c-17.5 0-31.7-14.2-31.7-31.7s14.2-31.7 31.7-31.7 31.7 14.2 31.7 31.7-14.3 31.7-31.7 31.7zm0-60.1c-15.6 0-28.4 12.7-28.4 28.4s12.7 28.4 28.4 28.4 28.4-12.7 28.4-28.4-12.8-28.4-28.4-28.4z" style="fill:#213469"/>
      <path class="st2" d="m859.1 727.9c-4.2 0-7.4-0.5-10.3-1.6-3.7-1.4-6.7-3.9-8.2-7-1.9-3.7-1.9-8.5-0.1-14.2 0.5-1.5 1-2.9 1.5-4.3 1.1-2.9 2.1-5.7 2.6-8.7 0.5-3.7-0.1-8.9-3.8-11.5l1.2-1.6c4.4 3.1 5.3 8.9 4.6 13.4-0.5 3.2-1.6 6.2-2.7 9.1l-1.5 4.2c-1.6 5.2-1.7 9.5 0 12.7 1.3 2.6 3.9 4.8 7.1 6 2.7 1 5.6 1.5 9.6 1.5s6.9-0.5 9.6-1.5c3.3-1.3 5.8-3.4 7.1-6 1.6-3.2 1.6-7.5 0-12.7-0.4-1.4-1-2.8-1.5-4.2-1.1-2.9-2.2-5.9-2.6-9.1-0.6-4.5 0.3-10.4 4.6-13.4l1.1 1.7c-3.6 2.4-4.3 7.5-3.8 11.5 0.4 3 1.4 5.7 2.5 8.7 0.5 1.4 1.1 2.9 1.5 4.3 1.8 5.7 1.8 10.5-0.1 14.2-1.6 3.1-4.5 5.6-8.2 7-2.8 1-6 1.5-10.2 1.5z" style="fill:#213469"/>
      <path class="st0" d="m875.1 682.5c-0.2-0.1-0.4-0.3-0.4-0.5 0.1-0.2 0.3-0.4 0.5-0.3l1.2 0.4c0.3 0.1 0.6 0.2 0.8 0.3s0.3 0.2 0.3 0.2c0.2 0.1 0.3 0.3 0.3 0.5s-0.2 0.2-0.4 0.1c0 0-0.6-0.2-1.1-0.4-0.6-0.1-1.2-0.3-1.2-0.3z" style="fill:#ed1c2c"/>
      <path class="st0" d="m874 681.8c0.1 0.2 0.4 0.3 0.6 0.1 0.2-0.1 0.3-0.4 0.2-0.6 0 0-0.3-0.6-0.5-1.2l-0.3-0.9c-0.1-0.2-0.1-0.4-0.1-0.4-0.1-0.2-0.4-0.3-0.6-0.2-0.3 0.2-0.4 0.5-0.3 0.7 0 0 0.2 0.6 0.5 1.2 0.2 0.8 0.5 1.3 0.5 1.3z" style="fill:#ed1c2c"/>
      <path class="st0" d="m873.7 685.4c-0.2 0-0.5-0.1-0.5-0.4 0-0.2 0.2-0.5 0.4-0.5h1.3c0.3 0 0.6 0 0.8 0.1h0.4c0.2 0 0.4 0.2 0.5 0.4 0 0.2-0.1 0.3-0.4 0.3h-1.2c-0.6 0.1-1.3 0.1-1.3 0.1z" style="fill:#ed1c2c"/>
      <path class="st0" d="m872.5 685.1c0.2 0.2 0.5 0.1 0.6 0 0.2-0.2 0.1-0.5 0-0.6l-0.9-0.9c-0.2-0.2-0.4-0.5-0.6-0.7-0.1-0.2-0.2-0.3-0.2-0.3-0.1-0.2-0.5-0.2-0.7 0s-0.2 0.6-0.1 0.8c0 0 0.4 0.5 0.9 1 0.6 0.3 1 0.7 1 0.7z" style="fill:#ed1c2c"/>
      <path class="st0" d="m873.2 688.6c-0.2 0.1-0.5 0-0.6-0.3-0.1-0.2 0-0.5 0.3-0.6 0 0 0.6-0.2 1.2-0.3l1.2-0.2c0.2 0 0.5 0.1 0.5 0.3 0.1 0.2-0.1 0.4-0.3 0.4 0 0-0.6 0.1-1.2 0.3-0.5 0.2-1.1 0.4-1.1 0.4z" style="fill:#ed1c2c"/>
      <path class="st0" d="m871.9 688.5c0.2 0.1 0.5 0 0.6-0.2s0-0.5-0.2-0.6c0 0-0.5-0.3-1.1-0.7-0.5-0.4-1.1-0.8-1.1-0.8-0.2-0.2-0.5-0.1-0.6 0.2s-0.1 0.6 0.1 0.7c0 0 0.5 0.4 1.1 0.7 0.6 0.5 1.2 0.7 1.2 0.7z" style="fill:#ed1c2c"/>
      <path class="st0" d="m873.3 691.9c-0.2 0.1-0.5 0.1-0.6-0.2-0.1-0.2 0-0.5 0.2-0.6 0 0 0.6-0.3 1.1-0.6 0.6-0.3 1.1-0.5 1.1-0.5 0.2-0.1 0.5 0 0.6 0.2s0 0.4-0.2 0.5c0 0-0.6 0.2-1.1 0.5-0.6 0.4-1.1 0.7-1.1 0.7z" style="fill:#ed1c2c"/>
      <path class="st0" d="m872 692.1c0.2 0.1 0.5-0.1 0.6-0.3s-0.1-0.5-0.3-0.6l-1.2-0.4c-0.6-0.2-1.2-0.5-1.2-0.5-0.2-0.1-0.5 0-0.6 0.3s0 0.6 0.3 0.7c0 0 0.6 0.3 1.2 0.5 0.6 0.1 1.2 0.3 1.2 0.3z" style="fill:#ed1c2c"/>
      <path class="st0" d="m873.9 695.1c-0.2 0.2-0.5 0.1-0.6-0.1s-0.1-0.5 0.1-0.6c0 0 0.5-0.4 1-0.7 0.5-0.4 1.1-0.7 1.1-0.7 0.2-0.1 0.5-0.1 0.6 0.1s0.1 0.4-0.1 0.6c0 0-0.5 0.4-1 0.7-0.6 0.4-1.1 0.7-1.1 0.7z" style="fill:#ed1c2c"/>
      <path class="st0" d="m872.7 695.5c0.2 0 0.5-0.1 0.5-0.4 0-0.2-0.1-0.5-0.4-0.5 0 0-0.6-0.1-1.3-0.2-0.6-0.1-1.2-0.3-1.2-0.3-0.2-0.1-0.5 0.1-0.5 0.4-0.1 0.3 0.1 0.5 0.4 0.6 0 0 0.6 0.1 1.3 0.2 0.6 0 1.2 0.2 1.2 0.2z" style="fill:#ed1c2c"/>
      <path class="st0" d="m874.9 698.3c-0.2 0.2-0.5 0.2-0.6 0-0.2-0.2-0.2-0.5 0-0.6 0 0 0.5-0.4 0.9-0.8l1-0.8c0.2-0.2 0.5-0.1 0.6 0 0.1 0.2 0.1 0.4-0.1 0.6 0 0-0.5 0.4-0.9 0.8s-0.9 0.8-0.9 0.8z" style="fill:#ed1c2c"/>
      <path class="st0" d="m873.7 698.7c0.2 0 0.5-0.2 0.5-0.4s-0.2-0.5-0.4-0.5c0 0-0.6-0.1-1.3-0.1-0.6-0.1-1.3-0.1-1.3-0.1-0.2 0-0.5 0.2-0.5 0.4 0 0.3 0.2 0.5 0.4 0.5 0 0 0.6 0.1 1.3 0.1 0.7 0.1 1.3 0.1 1.3 0.1z" style="fill:#ed1c2c"/>
      <path class="st0" d="m876.1 701.5c-0.2 0.2-0.5 0.2-0.6 0-0.2-0.2-0.2-0.5 0-0.6l1.8-1.7c0.2-0.2 0.5-0.2 0.6 0 0.2 0.2 0.2 0.5 0 0.6z" style="fill:#ed1c2c"/>
      <path class="st0" d="m874.9 701.9c0.2 0 0.5-0.2 0.5-0.4s-0.2-0.5-0.4-0.5l-2.5-0.1c-0.2 0-0.5 0.2-0.5 0.4 0 0.3 0.2 0.5 0.4 0.5z" style="fill:#ed1c2c"/>
      <path class="st0" d="m877.2 704.7c-0.2 0.2-0.5 0.1-0.6 0-0.2-0.2-0.1-0.5 0-0.6l1.9-1.7c0.2-0.2 0.5-0.2 0.6 0 0.2 0.2 0.2 0.5 0 0.7 0 0-0.5 0.4-0.9 0.9-0.5 0.3-1 0.7-1 0.7z" style="fill:#ed1c2c"/>
      <path class="st0" d="m876 705.1c0.2 0 0.5-0.2 0.5-0.4s-0.2-0.5-0.4-0.5l-2.5-0.2c-0.2 0-0.5 0.2-0.5 0.4s0.2 0.4 0.4 0.5c0 0 0.6 0 1.3 0.1 0.6 0.1 1.2 0.1 1.2 0.1z" style="fill:#ed1c2c"/>
      <path class="st0" d="m878.1 708c-0.2 0.1-0.5 0.1-0.6-0.1s-0.1-0.5 0.1-0.6l2-1.6c0.2-0.2 0.5-0.1 0.6 0.1 0.2 0.2 0.1 0.5-0.1 0.7l-1 0.8c-0.5 0.4-1 0.7-1 0.7z" style="fill:#ed1c2c"/>
      <path class="st0" d="m876.9 708.3c0.2 0 0.5-0.1 0.5-0.4 0-0.2-0.1-0.5-0.4-0.5l-1.2-0.2c-0.6-0.1-1.3-0.1-1.3-0.1-0.2 0-0.5 0.1-0.5 0.4 0 0.2 0.1 0.4 0.4 0.4l1.2 0.2c0.7 0.1 1.3 0.2 1.3 0.2z" style="fill:#ed1c2c"/>
      <path class="st0" d="m878.6 711.5c-0.2 0.1-0.5 0-0.6-0.2s0-0.5 0.2-0.6c0 0 0.6-0.3 1.1-0.7 0.5-0.3 1.1-0.7 1.1-0.7 0.2-0.1 0.5-0.1 0.6 0.2 0.1 0.2 0.1 0.5-0.1 0.7 0 0-0.6 0.4-1.1 0.7l-1.2 0.6z" style="fill:#ed1c2c"/>
      <path class="st0" d="m877.4 711.6c0.2 0.1 0.5 0 0.6-0.3 0.1-0.2 0-0.5-0.3-0.6 0 0-0.6-0.2-1.2-0.3-0.6-0.2-1.2-0.3-1.2-0.3-0.2-0.1-0.5 0.1-0.5 0.3-0.1 0.2 0.1 0.4 0.3 0.5 0 0 0.6 0.1 1.2 0.3 0.5 0.2 1.1 0.4 1.1 0.4z" style="fill:#ed1c2c"/>
      <path class="st0" d="m878.5 715c-0.2 0.1-0.5-0.1-0.6-0.3s0.1-0.5 0.3-0.6c0 0 0.2-0.1 0.4-0.1 0.2-0.1 0.5-0.2 0.8-0.3 0.6-0.2 1.2-0.5 1.2-0.5 0.2-0.1 0.5 0 0.6 0.3s0 0.6-0.2 0.7c0 0-0.6 0.3-1.2 0.5-0.7 0.1-1.3 0.3-1.3 0.3z" style="fill:#ed1c2c"/>
      <path class="st0" d="m877.3 714.8c0.2 0.1 0.5 0.1 0.6-0.1s0.1-0.5-0.2-0.6c0 0-0.1-0.1-0.3-0.2s-0.5-0.2-0.8-0.4c-0.6-0.3-1.2-0.5-1.2-0.5-0.2-0.1-0.5 0-0.6 0.2s0 0.4 0.2 0.5c0 0 0.6 0.2 1.1 0.5l1.2 0.6z" style="fill:#ed1c2c"/>
      <path class="st0" d="m877.6 718.4c-0.2 0-0.4-0.2-0.5-0.4 0-0.2 0.2-0.4 0.4-0.5h0.4c0.2 0 0.5-0.1 0.9-0.1 0.6-0.1 1.3-0.2 1.3-0.2 0.2-0.1 0.5 0.1 0.5 0.4s-0.2 0.6-0.4 0.6c0 0-0.7 0.1-1.3 0.2h-1.3z" style="fill:#ed1c2c"/>
      <path class="st0" d="m876.4 717.9c0.2 0.2 0.5 0.2 0.6 0 0.2-0.2 0.2-0.5 0-0.6l-0.3-0.3c-0.2-0.2-0.4-0.4-0.7-0.5-0.5-0.4-1-0.7-1-0.7-0.2-0.1-0.5-0.1-0.6 0s-0.1 0.4 0.1 0.5c0 0 0.5 0.4 0.9 0.8 0.6 0.4 1 0.8 1 0.8z" style="fill:#ed1c2c"/>
      <path class="st0" d="m875.7 721.5c-0.2-0.1-0.4-0.3-0.3-0.6 0.1-0.2 0.3-0.4 0.5-0.3 0 0 0.6 0.1 1.3 0.2 0.6 0.1 1.3 0.1 1.3 0.1 0.3 0 0.4 0.3 0.4 0.6-0.1 0.3-0.4 0.5-0.6 0.5 0 0-0.7-0.1-1.3-0.2-0.3-0.1-0.6-0.1-0.9-0.2-0.2-0.1-0.4-0.1-0.4-0.1z" style="fill:#ed1c2c"/>
      <path class="st0" d="m874.8 720.6c0.1 0.2 0.4 0.3 0.6 0.2s0.3-0.4 0.2-0.6c0 0-0.3-0.5-0.7-1l-0.8-1c-0.2-0.2-0.4-0.2-0.6-0.2-0.1 0.1-0.2 0.3-0.1 0.5 0 0 0.4 0.5 0.7 1 0.2 0.3 0.3 0.5 0.4 0.7 0.2 0.3 0.3 0.4 0.3 0.4z" style="fill:#ed1c2c"/>
      <path class="st0" d="m873.1 723.8c-0.2-0.1-0.3-0.4-0.2-0.6s0.4-0.3 0.6-0.2c0 0 0.1 0.1 0.4 0.2 0.2 0.1 0.5 0.2 0.8 0.4 0.6 0.3 1.2 0.5 1.2 0.5 0.2 0.1 0.3 0.4 0.2 0.6-0.1 0.3-0.5 0.4-0.7 0.3l-0.4-0.2c-0.2-0.1-0.5-0.2-0.8-0.4-0.5-0.2-1.1-0.6-1.1-0.6z" style="fill:#ed1c2c"/>
      <path class="st0" d="m872.4 722.8c0.1 0.2 0.3 0.4 0.5 0.3s0.4-0.3 0.3-0.5c0 0 0-0.1-0.1-0.4-0.1-0.2-0.2-0.5-0.3-0.8-0.2-0.6-0.5-1.2-0.5-1.2-0.1-0.2-0.3-0.4-0.5-0.3-0.2 0-0.3 0.3-0.2 0.5 0 0 0.1 0.1 0.1 0.4 0.1 0.2 0.2 0.5 0.3 0.8l0.4 1.2z" style="fill:#ed1c2c"/>
      <path class="st0" d="m870.1 725.6c-0.2-0.2-0.2-0.5 0-0.6 0.2-0.2 0.4-0.2 0.6 0l1 0.8c0.5 0.4 1.1 0.8 1.1 0.8 0.2 0.1 0.2 0.4 0 0.6s-0.5 0.3-0.7 0.1l-1-0.8c-0.6-0.5-1-0.9-1-0.9z" style="fill:#ed1c2c"/>
      <path class="st0" d="m869.6 724.4c0 0.2 0.2 0.4 0.4 0.4 0.3 0 0.4-0.2 0.4-0.5 0 0 0-0.6-0.1-1.3l-0.2-1.2c0-0.2-0.2-0.4-0.5-0.4-0.2 0-0.3 0.2-0.3 0.4 0 0 0.1 0.6 0.1 1.2 0.2 0.8 0.2 1.4 0.2 1.4z" style="fill:#ed1c2c"/>
      <path class="st0" d="m866.8 726.7c-0.2-0.2-0.1-0.5 0.1-0.6 0.2-0.2 0.5-0.1 0.6 0.1l0.8 1c0.4 0.5 0.9 0.9 0.9 0.9 0.2 0.2 0.2 0.5-0.1 0.6-0.2 0.2-0.5 0.2-0.7 0l-0.8-1c-0.5-0.5-0.8-1-0.8-1z" style="fill:#ed1c2c"/>
      <path class="st0" d="m866.5 725.5c0 0.2 0.1 0.5 0.4 0.5 0.2 0 0.5-0.2 0.5-0.4 0 0 0.1-0.6 0.1-1.3 0-0.6 0.1-1.2 0.1-1.2 0-0.2-0.2-0.5-0.4-0.5s-0.4 0.1-0.4 0.4c0 0 0 0.6-0.1 1.3-0.1 0.5-0.2 1.2-0.2 1.2z" style="fill:#ed1c2c"/>
      <path class="st0" d="m863.3 727.3c-0.1-0.2 0-0.5 0.2-0.6s0.5 0 0.6 0.2c0 0 0.3 0.5 0.7 1.1 0.3 0.5 0.7 1 0.7 1 0.1 0.2 0.1 0.5-0.2 0.6-0.2 0.1-0.5 0.1-0.7-0.1 0 0-0.1-0.1-0.2-0.3s-0.3-0.5-0.5-0.8c-0.2-0.6-0.6-1.1-0.6-1.1z" style="fill:#ed1c2c"/>
      <path class="st0" d="m863.2 726c-0.1 0.2 0.1 0.5 0.3 0.6s0.5-0.1 0.5-0.3c0 0 0.2-0.6 0.3-1.2s0.3-1.2 0.3-1.2c0-0.2-0.1-0.5-0.3-0.5-0.2-0.1-0.4 0.1-0.5 0.3 0 0 0 0.2-0.1 0.4s-0.1 0.5-0.2 0.8c-0.1 0.5-0.3 1.1-0.3 1.1z" style="fill:#ed1c2c"/>
      <path class="st0" d="m859.9 727.5c-0.1-0.2 0-0.5 0.2-0.6s0.5 0 0.6 0.2c0 0 0.3 0.6 0.6 1.1 0.3 0.6 0.6 1.1 0.6 1.1 0.1 0.2 0 0.5-0.2 0.6s-0.5 0-0.6-0.2c0 0-0.3-0.6-0.6-1.1-0.3-0.6-0.6-1.1-0.6-1.1z" style="fill:#ed1c2c"/>
      <path class="st0" d="m859.9 726.2c-0.1 0.2 0 0.5 0.2 0.6s0.5 0 0.6-0.3l0.8-2.4c0.1-0.2 0-0.5-0.2-0.6s-0.4 0-0.5 0.2l-0.4 1.2c-0.3 0.7-0.5 1.3-0.5 1.3z" style="fill:#ed1c2c"/>
      <path class="st0" d="m856.5 727.4c-0.1-0.2 0-0.5 0.3-0.6 0.2-0.1 0.5 0 0.6 0.3 0 0 0.2 0.6 0.5 1.2 0.2 0.6 0.5 1.2 0.5 1.2 0.1 0.2 0 0.5-0.3 0.6-0.2 0.1-0.5 0-0.6-0.3 0 0-0.2-0.6-0.5-1.2s-0.5-1.2-0.5-1.2z" style="fill:#ed1c2c"/>
      <path class="st0" d="m856.5 726.2c-0.1 0.2 0 0.5 0.2 0.6s0.5 0 0.6-0.2c0 0 0.3-0.6 0.5-1.2 0.3-0.6 0.5-1.2 0.5-1.2 0.1-0.2 0-0.5-0.2-0.6s-0.5 0-0.5 0.2c0 0-0.3 0.6-0.5 1.2l-0.6 1.2z" style="fill:#ed1c2c"/>
      <path class="st0" d="m853 727c-0.1-0.2 0.1-0.5 0.3-0.5 0.2-0.1 0.5 0.1 0.5 0.3 0 0 0 0.2 0.1 0.4s0.2 0.5 0.2 0.8l0.4 1.2c0.1 0.2-0.1 0.5-0.3 0.6-0.3 0.1-0.5-0.1-0.6-0.3 0 0 0-0.2-0.1-0.4s-0.2-0.5-0.2-0.9c-0.1-0.6-0.3-1.2-0.3-1.2z" style="fill:#ed1c2c"/>
      <path class="st0" d="m853.2 725.8c-0.1 0.2-0.1 0.5 0.1 0.6s0.5 0.1 0.6-0.1c0 0 0.1-0.1 0.2-0.3s0.3-0.5 0.4-0.8c0.3-0.6 0.6-1.1 0.6-1.1 0.1-0.2 0-0.5-0.1-0.6-0.2-0.1-0.4 0-0.6 0.2 0 0-0.3 0.5-0.6 1.1-0.2 0.4-0.6 1-0.6 1z" style="fill:#ed1c2c"/>
      <path class="st0" d="m849.6 726.1c0-0.2 0.2-0.5 0.4-0.5s0.5 0.2 0.5 0.4c0 0 0.1 0.6 0.2 1.3 0.1 0.6 0.2 1.3 0.2 1.3 0.1 0.2-0.1 0.5-0.4 0.5s-0.5-0.2-0.6-0.4c0 0-0.1-0.6-0.2-1.3 0-0.6-0.1-1.3-0.1-1.3z" style="fill:#ed1c2c"/>
      <path class="st0" d="m850.1 725c-0.2 0.2-0.2 0.5 0 0.6 0.2 0.2 0.5 0.1 0.6-0.1l0.8-1c0.4-0.5 0.7-1 0.7-1 0.1-0.2 0.1-0.5 0-0.6-0.2-0.2-0.4-0.1-0.5 0.1l-1.6 2z" style="fill:#ed1c2c"/>
      <path class="st0" d="m846.4 724.7c0-0.3 0.2-0.4 0.5-0.4 0.2 0 0.4 0.2 0.4 0.5v1.3 1.3c0 0.3-0.2 0.4-0.5 0.4s-0.5-0.3-0.5-0.5v-1.3c0.1-0.6 0.1-1.3 0.1-1.3z" style="fill:#ed1c2c"/>
      <path class="st0" d="m847.1 723.7c-0.2 0.1-0.2 0.4-0.1 0.6 0.2 0.2 0.4 0.2 0.6 0.1 0 0 0.5-0.4 0.9-0.8 0.5-0.4 0.9-0.9 0.9-0.9 0.2-0.2 0.2-0.5 0.1-0.6-0.1-0.2-0.4-0.2-0.5 0 0 0-0.4 0.4-0.9 0.8l-1 0.8z" style="fill:#ed1c2c"/>
      <path class="st0" d="m843.6 722.6c0.1-0.2 0.3-0.4 0.6-0.3 0.2 0.1 0.4 0.3 0.3 0.6 0 0-0.2 0.6-0.3 1.2s-0.2 1.3-0.2 1.3c0 0.3-0.3 0.4-0.6 0.3s-0.5-0.4-0.4-0.6c0 0 0-0.2 0.1-0.4s0.1-0.6 0.2-0.9c0.1-0.6 0.3-1.2 0.3-1.2z" style="fill:#ed1c2c"/>
      <path class="st0" d="m844.5 721.7c-0.2 0.1-0.3 0.4-0.2 0.6s0.4 0.3 0.6 0.2c0 0 0.1-0.1 0.3-0.2s0.5-0.3 0.8-0.4c0.5-0.3 1-0.7 1-0.7 0.2-0.1 0.3-0.4 0.2-0.6s-0.3-0.2-0.5-0.1c0 0-0.1 0.1-0.3 0.2s-0.5 0.3-0.7 0.4c-0.7 0.4-1.2 0.6-1.2 0.6z" style="fill:#ed1c2c"/>
      <path class="st0" d="m841.3 719.9c0.1-0.2 0.4-0.2 0.6-0.1s0.3 0.4 0.1 0.6c0 0-0.3 0.5-0.6 1.1-0.1 0.3-0.3 0.6-0.4 0.8l-0.2 0.4c-0.1 0.2-0.4 0.3-0.6 0.2-0.2-0.2-0.4-0.5-0.3-0.7 0 0 0.3-0.6 0.6-1.1 0.5-0.7 0.8-1.2 0.8-1.2z" style="fill:#ed1c2c"/>
      <path class="st0" d="m842.4 719.3c-0.2 0-0.4 0.3-0.4 0.5 0 0.3 0.3 0.4 0.5 0.3 0 0 0.6-0.1 1.2-0.3 0.3-0.1 0.6-0.2 0.8-0.3s0.4-0.1 0.4-0.1c0.2-0.1 0.4-0.3 0.3-0.5 0-0.2-0.2-0.3-0.4-0.2 0 0-0.6 0.2-1.2 0.3-0.6 0.2-1.2 0.3-1.2 0.3z" style="fill:#ed1c2c"/>
      <path class="st0" d="m840 716.6c0.2-0.2 0.5-0.1 0.6 0.1 0.2 0.2 0.1 0.5-0.1 0.6 0 0-0.5 0.4-0.9 0.9s-0.9 1-0.9 1c-0.2 0.2-0.5 0.2-0.7 0s-0.2-0.6-0.1-0.8l0.3-0.3c0.2-0.2 0.4-0.4 0.7-0.6 0.6-0.5 1.1-0.9 1.1-0.9z" style="fill:#ed1c2c"/>
      <path class="st0" d="m841.2 716.3c-0.2 0-0.5 0.1-0.5 0.4 0 0.2 0.1 0.5 0.4 0.5h1.3c0.6 0 1.2-0.1 1.2-0.1 0.2 0 0.4-0.2 0.5-0.4 0-0.2-0.1-0.3-0.4-0.3h-0.4-0.8c-0.7 0-1.3-0.1-1.3-0.1z" style="fill:#ed1c2c"/>
      <path class="st0" d="m839.5 713.1c0.2-0.1 0.5 0 0.6 0.2s0 0.5-0.2 0.6c0 0-0.6 0.3-1.1 0.6s-1.1 0.7-1.1 0.7c-0.2 0.1-0.5 0.1-0.6-0.2s-0.1-0.6 0.1-0.7c0 0 0.1-0.1 0.3-0.2s0.5-0.3 0.8-0.4l1.2-0.6z" style="fill:#ed1c2c"/>
      <path class="st0" d="m840.8 713.1c-0.2-0.1-0.5 0-0.6 0.2s0 0.5 0.2 0.6l1.2 0.4c0.6 0.2 1.2 0.3 1.2 0.3 0.2 0 0.5-0.1 0.6-0.3s-0.1-0.4-0.3-0.4c0 0-0.2 0-0.4-0.1s-0.5-0.2-0.8-0.2c-0.5-0.3-1.1-0.5-1.1-0.5z" style="fill:#ed1c2c"/>
      <path class="st0" d="m839.8 709.6c0.2-0.1 0.5 0.1 0.5 0.3 0.1 0.2-0.1 0.5-0.3 0.6l-1.2 0.4c-0.6 0.2-1.2 0.5-1.2 0.5-0.2 0.1-0.5 0-0.6-0.3s0.1-0.6 0.3-0.6l1.2-0.4c0.7-0.3 1.3-0.5 1.3-0.5z" style="fill:#ed1c2c"/>
      <path class="st0" d="m841 709.8c-0.2-0.1-0.5-0.1-0.6 0.1s-0.1 0.5 0.1 0.6c0 0 0.6 0.3 1.1 0.6 0.6 0.3 1.1 0.5 1.1 0.5 0.2 0.1 0.5 0 0.6-0.2s0-0.4-0.2-0.5c0 0-0.6-0.3-1.1-0.6-0.5-0.1-1-0.5-1-0.5z" style="fill:#ed1c2c"/>
      <path class="st0" d="m840.5 706.3c0.2 0 0.5 0.1 0.5 0.4 0 0.2-0.1 0.5-0.4 0.5l-1.2 0.2c-0.6 0.1-1.3 0.3-1.3 0.3-0.2 0.1-0.5-0.1-0.5-0.4s0.1-0.5 0.4-0.6c0 0 0.6-0.1 1.3-0.2 0.6-0.2 1.2-0.2 1.2-0.2z" style="fill:#ed1c2c"/>
      <path class="st0" d="m841.7 706.6c-0.2-0.2-0.5-0.1-0.6 0.1-0.2 0.2-0.1 0.5 0.1 0.6 0 0 0.5 0.4 1 0.7 0.5 0.4 1 0.7 1 0.7 0.2 0.1 0.5 0.1 0.6-0.1s0.1-0.4-0.1-0.6c0 0-0.5-0.4-1-0.7s-1-0.7-1-0.7z" style="fill:#ed1c2c"/>
      <path class="st0" d="m841.6 703c0.2 0 0.5 0.2 0.5 0.4s-0.2 0.5-0.4 0.5c0 0-0.6 0.1-1.3 0.1-0.6 0.1-1.3 0.1-1.3 0.1-0.2 0-0.5-0.2-0.5-0.4 0-0.3 0.2-0.5 0.4-0.5 0 0 0.6-0.1 1.3-0.1 0.6-0.1 1.3-0.1 1.3-0.1z" style="fill:#ed1c2c"/>
      <path class="st0" d="m842.7 703.4c-0.2-0.2-0.5-0.2-0.6 0-0.2 0.2-0.2 0.5 0 0.6 0 0 0.5 0.4 0.9 0.8l1 0.8c0.2 0.2 0.5 0.1 0.6 0 0.2-0.2 0.1-0.4 0-0.6 0 0-0.5-0.4-0.9-0.8l-1-0.8z" style="fill:#ed1c2c"/>
      <path class="st0" d="m842.7 699.8c0.2 0 0.5 0.2 0.5 0.4s-0.2 0.5-0.4 0.5l-2.5 0.1c-0.2 0-0.5-0.2-0.5-0.4s0.2-0.5 0.4-0.5z" style="fill:#ed1c2c"/>
      <path class="st0" d="m843.9 700.2c-0.2-0.2-0.5-0.2-0.6 0-0.2 0.2-0.2 0.5 0 0.6l1.8 1.7c0.2 0.2 0.5 0.2 0.6 0 0.2-0.2 0.2-0.5 0-0.6z" style="fill:#ed1c2c"/>
      <path class="st0" d="m843.8 696.6c0.2 0 0.5 0.2 0.5 0.4s-0.2 0.5-0.4 0.5c0 0-0.6 0-1.3 0.1-0.6 0-1.3 0.1-1.3 0.1-0.2 0-0.5-0.2-0.5-0.4s0.2-0.4 0.4-0.5c0 0 0.6 0 1.3-0.1 0.7 0 1.3-0.1 1.3-0.1z" style="fill:#ed1c2c"/>
      <path class="st0" d="m845 697c-0.2-0.2-0.5-0.1-0.6 0-0.2 0.2-0.1 0.5 0 0.6 0 0 0.5 0.4 0.9 0.8 0.5 0.4 0.9 0.9 0.9 0.9 0.2 0.2 0.5 0.2 0.6 0 0.2-0.2 0.2-0.5 0-0.7 0 0-0.5-0.4-0.9-0.9-0.4-0.3-0.9-0.7-0.9-0.7z" style="fill:#ed1c2c"/>
      <path class="st0" d="m844.7 693.4c0.2 0 0.5 0.1 0.5 0.3 0.1 0.2-0.1 0.5-0.4 0.5l-2.4 0.4c-0.2 0-0.5-0.1-0.5-0.4 0-0.2 0.1-0.4 0.4-0.5l1.2-0.2c0.6 0 1.2-0.1 1.2-0.1z" style="fill:#ed1c2c"/>
      <path class="st0" d="m845.9 693.7c-0.2-0.1-0.5-0.1-0.6 0.1s-0.1 0.5 0.1 0.6l2 1.6c0.2 0.2 0.5 0.1 0.6-0.1 0.2-0.2 0.1-0.5-0.1-0.7l-1-0.8c-0.5-0.4-1-0.7-1-0.7z" style="fill:#ed1c2c"/>
      <path class="st0" d="m845.1 690.2c0.2-0.1 0.5 0 0.6 0.2s0 0.5-0.3 0.6l-1.2 0.4c-0.6 0.2-1.2 0.3-1.2 0.3-0.2 0.1-0.5-0.1-0.6-0.3s0.1-0.4 0.3-0.5c0 0 0.6-0.2 1.2-0.3l1.2-0.4z" style="fill:#ed1c2c"/>
      <path class="st0" d="m846.3 690.2c-0.2-0.1-0.5 0-0.6 0.2s0 0.5 0.2 0.6c0 0 0.6 0.3 1.1 0.6s1.1 0.7 1.1 0.7c0.2 0.1 0.5 0.1 0.6-0.2s0.1-0.6-0.2-0.7c0 0-0.6-0.3-1.1-0.6s-1.1-0.6-1.1-0.6z" style="fill:#ed1c2c"/>
      <path class="st0" d="m844.8 686.9c0.2-0.1 0.5-0.1 0.6 0.1s0.1 0.5-0.1 0.6c0 0-0.5 0.3-1.1 0.6s-1.1 0.5-1.1 0.5c-0.2 0.1-0.5 0-0.6-0.1-0.1-0.2 0-0.4 0.2-0.5 0 0 0.5-0.3 1.1-0.6l1-0.6z" style="fill:#ed1c2c"/>
      <path class="st0" d="m846 686.7c-0.2-0.1-0.5 0.1-0.5 0.3-0.1 0.2 0.1 0.5 0.3 0.5l1.2 0.4c0.6 0.2 1.2 0.5 1.2 0.5 0.2 0.1 0.5 0 0.6-0.3s-0.1-0.6-0.3-0.7l-1.2-0.4c-0.6-0.2-1.3-0.3-1.3-0.3z" style="fill:#ed1c2c"/>
      <path class="st0" d="m843.8 683.8c0.2-0.2 0.5-0.2 0.6 0 0.2 0.2 0.2 0.5 0 0.6 0 0-0.4 0.4-0.9 0.8l-1 0.8c-0.2 0.1-0.5 0.1-0.6 0s-0.1-0.3 0.1-0.5c0 0 0.5-0.4 0.9-0.8 0.2-0.2 0.5-0.4 0.6-0.6 0.2-0.1 0.3-0.3 0.3-0.3z" style="fill:#ed1c2c"/>
      <path class="st0" d="m845 683.3c-0.3 0-0.4 0.2-0.4 0.5 0 0.2 0.2 0.4 0.4 0.5 0 0 0.6 0 1.3 0.1 0.6 0.1 1.3 0.2 1.3 0.2 0.3 0 0.5-0.1 0.5-0.4s-0.2-0.6-0.5-0.6c0 0-0.7-0.1-1.3-0.1-0.7-0.2-1.3-0.2-1.3-0.2z" style="fill:#ed1c2c"/>
      <path class="st0" d="m842 681.2c0.1-0.2 0.4-0.3 0.6-0.3 0.2 0.1 0.3 0.4 0.2 0.6 0 0-0.3 0.6-0.6 1.1s-0.7 1-0.7 1c-0.1 0.2-0.4 0.3-0.6 0.2s-0.2-0.3 0-0.5c0 0 0.3-0.5 0.6-1 0.2-0.3 0.3-0.5 0.4-0.8 0.1-0.1 0.1-0.3 0.1-0.3z" style="fill:#ed1c2c"/>
      <path class="st0" d="m842.9 680.4c-0.2 0.1-0.3 0.3-0.3 0.6 0.1 0.2 0.3 0.4 0.6 0.3 0 0 0.6-0.2 1.2-0.3s1.3-0.2 1.3-0.2c0.3 0 0.4-0.3 0.3-0.6s-0.4-0.5-0.6-0.5c0 0-0.7 0.1-1.3 0.3-0.3 0.1-0.6 0.2-0.8 0.2l-0.4 0.2z" style="fill:#ed1c2c"/>
    </g>
  </g>
</svg>
